<svg id="compass" xmlns="http://www.w3.org/2000/svg" viewBox="0 0 24 24">
  <g fill="none" stroke="#ffffff" stroke-linecap="round" stroke-linejoin="round">
    <circle cx="12" cy="12" r="11.5"/>
    <path d="M15.55,14.85a1,1,0,0,0-.7.7L13,22.27a.51.51,0,0,1-.62.35.51.51,0,0,1-.35-.35l-1.86-6.72a1,1,0,0,0-.7-.7L2.73,13a.49.49,0,0,1-.34-.61A.48.48,0,0,1,2.73,12L10,10h0l2-7.27a.5.5,0,0,1,.61-.35.51.51,0,0,1,.35.35L15,10h0l7.26,2a.49.49,0,0,1,.35.61.48.48,0,0,1-.35.35Z" transform="translate(-0.5 -0.5)"/>
    <line x1="7" y1="7" x2="9.5" y2="9.5"/>
    <line x1="14.61" y1="14.6" x2="17" y2="17"/>
    <line x1="17" y1="7" x2="14.5" y2="9.5"/>
    <line x1="9.4" y1="14.6" x2="7" y2="17"/>
    <circle cx="12" cy="12" r="1.5"/>
  </g>
</svg>
