<svg id="island" xmlns="http://www.w3.org/2000/svg" viewBox="0 0 46 46">
  <g  fill="none" stroke="#ffffff" stroke-linecap="round" stroke-linejoin="round">
    <path d="M22.51,9.78,31.2,5a.94.94,0,0,0,0-1.66A7.87,7.87,0,0,0,24.05,4a8.87,8.87,0,0,0-3.76,3.81,8.86,8.86,0,0,0-2.86-4.54A7.9,7.9,0,0,0,10.6,1.1a.92.92,0,0,0-.66,1.14,1,1,0,0,0,.29.47l6.89,6a8.67,8.67,0,0,0-5.86.63A7.75,7.75,0,0,0,6.49,14.9a.94.94,0,0,0,.81,1,1.05,1.05,0,0,0,.43,0l10.65-3.73h.93L28,19.78a.94.94,0,0,0,1.32-.09.81.81,0,0,0,.2-.39,7.77,7.77,0,0,0-2.39-6.89A8.82,8.82,0,0,0,22.51,9.78Z"/>
    <path d="M9.83,29.27c.8-5.68,2.48-11.46,6.24-15.42l1.16-1.22"/>
    <path d="M20.1,12.87l-1,2.38c-3.42,8.42-2.37,12.85-2.57,15.61"/>
    <path d="M6.56,27.18a15.78,15.78,0,0,0-4.79,2.87"/>
    <path d="M44.86,30.05C41.29,26.7,33,24.36,23.32,24.36c-.82,0-1.63,0-2.42,0"/>
  </g>
</svg>
