<svg id="location" xmlns="http://www.w3.org/2000/svg" viewBox="0 0 178 215">
  <title>location</title>
  <g id="skull" fill="none" stroke="#ffffff" stroke-miterlimit="10">
    <path d="M168.83,48.18a9.67,9.67,0,1,0-16.36,7v3.43a2.23,2.23,0,1,0,4.46,0,2.23,2.23,0,1,0,4.46,0,2.23,2.23,0,1,0,4.46,0V55.16A9.67,9.67,0,0,0,168.83,48.18Z"/>
    <circle cx="154.7" cy="48.18" r="2.23"/>
    <circle cx="163.62" cy="48.18" r="2.23"/>
    <path d="M160.65,54.87c-.39-.58-.69-1-1.49-1s-1.09.45-1.49,1"/>
    <path d="M151.55,54.13l-5.32,5.32a2.6,2.6,0,0,0-3.4,3.93L145.45,66a2.6,2.6,0,0,0,3.93-3.4l3.24-3.23"/>
    <path d="M153.21,40.57l-3.83-3.83a2.6,2.6,0,0,0-3.93-3.4L142.83,36a2.6,2.6,0,0,0,3.4,3.93l4.18,4.18"/>
    <path d="M166.78,54.13l5.32,5.32a2.6,2.6,0,0,1,3.39,3.93L172.87,66a2.6,2.6,0,0,1-3.93-3.4l-3.23-3.23" />
    <path d="M165.11,40.57l3.83-3.83a2.6,2.6,0,0,1,3.93-3.4L175.5,36a2.6,2.6,0,0,1-3.4,3.93l-4.19,4.18"/>
  </g>
  <g id="route" fill="none" stroke="#ffffff" stroke-linecap="round" stroke-linejoin="round">
    <g>
      <path d="M2.67,205.68c.84-11.22,8.47-32.6,55.52-27.06,67.83,8,66.75-67.12,23-90.73-63.07-34,21.12-136,74.29-56.56" stroke-dasharray="3 5"/>
    </g>
  </g>
</svg>
