<svg id="objects" xmlns="http://www.w3.org/2000/svg" viewBox="0 0 60 15">
  <path d="M118.21,24.26a25,25,0,0,1-17.4-7l-.29-.28a17,17,0,0,0-23.71,0l-.3.28a25,25,0,0,1-34.8,0l-.29-.28a17,17,0,0,0-23.71,0l-.29.28a25,25,0,0,1-34.8,0l-.3-.28a17,17,0,0,0-11.85-4.78v-8a25,25,0,0,1,17.4,7l.29.29a17.06,17.06,0,0,0,23.71,0l.3-.29a25,25,0,0,1,34.79,0l.3.29a17.06,17.06,0,0,0,23.71,0l.29-.29a25,25,0,0,1,34.8,0l.3.29a17,17,0,0,0,23.7,0l.3-.29a25,25,0,0,1,34.8,0l.29.28a17,17,0,0,0,23.71,0l.29-.29a25,25,0,0,1,17.41-7v8A17,17,0,0,0,195,16.94l-.29.28a25,25,0,0,1-34.8,0l-.3-.28a17,17,0,0,0-23.7,0l-.3.28A25,25,0,0,1,118.21,24.26Z" transform="translate(29.53 -4.13)" fill="#ffffff"/>
</svg>
